<svg width="32" height="32" viewBox="0 0 512 512" fill="none" xmlns="http://www.w3.org/2000/svg">
    <rect width="512" height="512" rx="80" fill="#0D4384"/>
    <path d="M256 100L240 116V136H272V116L256 100ZM240 156C206.863 156 180 182.863 180 216H220V204H292V216H332C332 182.863 305.137 156 272 156H240ZM180 216V268C164.536 268 152 280.536 152 296V360H360V296C360 280.536 347.464 268 332 268V216H180ZM152 372V392H360V372H152ZM120 404V432H392V404H120ZM180 280H200V360H180V280ZM228 280H248V360H228V280ZM276 280H296V360H276V280ZM324 280H344V360H324V280Z" fill="white"/>
    <g transform="translate(200, 150)">
        <circle cx="100" cy="100" r="80" stroke="#C22026" stroke-width="20" fill="none"/>
        <path d="M160 160L230 230" stroke="#C22026" stroke-width="30" stroke-linecap="round"/>
        <path d="M60 100V140H80V100H60ZM90 80V140H110V80H90ZM120 60V140H140V60H120Z" fill="#0D4384"/>
        <path d="M80 120L100 140L150 90" stroke="#0D4384" stroke-width="10" stroke-linecap="round" stroke-linejoin="round"/>
    </g>
</svg>